<svg width="48" height="53" viewBox="0 0 48 53" fill="none" xmlns="http://www.w3.org/2000/svg">
<g clip-path="url(#clip0_112_35)">
<path d="M22.5978 51.4921C21.4891 51.4921 20.5109 51.0899 19.663 50.2856L17.2174 47.8399C16.3913 47.0138 15.9783 46.0247 15.9783 44.8725C15.9783 43.6986 16.3913 42.7204 17.2174 41.9377L26.7717 32.3508L3.81522 32.3508C2.68478 32.3508 1.7663 31.9432 1.05978 31.128C0.353261 30.3127 4.76837e-07 29.329 4.76837e-07 28.1769V24.003C4.76837e-07 22.8508 0.353261 21.8671 1.05978 21.0519C1.7663 20.2367 2.68478 19.829 3.81522 19.829L26.7717 19.829L17.2174 10.2421C16.3913 9.45948 15.9783 8.48122 15.9783 7.30731C15.9783 6.1334 16.3913 5.15514 17.2174 4.37253L19.663 1.92687C20.4891 1.10079 21.4674 0.687744 22.5978 0.687744C23.75 0.687744 24.7391 1.10079 25.5652 1.92687L46.7935 23.1551C47.5978 23.916 48 24.8943 48 26.0899C48 27.2638 47.5978 28.253 46.7935 29.0573L25.5652 50.2856C24.7174 51.0899 23.7283 51.4921 22.5978 51.4921Z" fill="white"/>
</g>
<defs>
<clipPath id="clip0_112_35">
<rect width="52.18" height="48" fill="white" transform="matrix(0 1 -1 0 48 0)"/>
</clipPath>
</defs>
</svg>
