<svg width="48" height="48" viewBox="0 0 48 48" fill="none" xmlns="http://www.w3.org/2000/svg">
<path d="M16 36H19V32H23V29H19V25H16V29H12V32H16V36ZM26 34.5H36V31.5H26V34.5ZM26 29.5H36V26.5H26V29.5ZM28.2 21.9L31 19.1L33.8 21.9L35.9 19.8L33.1 16.9L35.9 14.1L33.8 12L31 14.8L28.2 12L26.1 14.1L28.9 16.9L26.1 19.8L28.2 21.9ZM12.5 18.4H22.5V15.4H12.5V18.4ZM10 42C8.9 42 7.958 41.6087 7.174 40.826C6.39 40.0433 5.99867 39.1013 6 38V10C6 8.9 6.392 7.95867 7.176 7.176C7.96 6.39333 8.90134 6.00133 10 6H38C39.1 6 40.042 6.392 40.826 7.176C41.61 7.96 42.0013 8.90133 42 10V38C42 39.1 41.6087 40.042 40.826 40.826C40.0433 41.61 39.1013 42.0013 38 42H10ZM10 38H38V10H10V38Z" fill="#CCCCCC"/>
</svg>
