<svg width="48" height="48" viewBox="0 0 48 48" fill="none" xmlns="http://www.w3.org/2000/svg">
<path d="M4.5 5.25V40.5H45.75C46.3467 40.5 46.919 40.7371 47.341 41.159C47.7629 41.581 48 42.1533 48 42.75C48 43.3467 47.7629 43.919 47.341 44.341C46.919 44.7629 46.3467 45 45.75 45H2.25C1.65326 45 1.08097 44.7629 0.65901 44.341C0.237053 43.919 0 43.3467 0 42.75L0 5.25C0 4.65326 0.237053 4.08097 0.65901 3.65901C1.08097 3.23705 1.65326 3 2.25 3C2.84674 3 3.41903 3.23705 3.84099 3.65901C4.26295 4.08097 4.5 4.65326 4.5 5.25ZM47.34 12.84L31.59 28.59C31.1681 29.0114 30.5963 29.248 30 29.248C29.4037 29.248 28.8319 29.0114 28.41 28.59L21 21.18L12.84 29.34C12.4132 29.7372 11.8491 29.9535 11.2661 29.9435C10.6832 29.9334 10.1268 29.6977 9.714 29.286C9.30227 28.8732 9.0666 28.3168 9.05653 27.7339C9.04646 27.1509 9.26277 26.5868 9.66 26.16L19.41 16.41C19.8319 15.9886 20.4037 15.752 21 15.752C21.5963 15.752 22.1681 15.9886 22.59 16.41L30 23.82L44.16 9.66C44.5868 9.26277 45.1509 9.04646 45.7339 9.05653C46.3168 9.0666 46.8732 9.30227 47.286 9.714C47.6977 10.1268 47.9334 10.6832 47.9435 11.2661C47.9535 11.8491 47.7372 12.4132 47.34 12.84Z" fill="#CCCCCC"/>
</svg>
